# xmcd
#
# Track frame offsets: 
#        150
#        21429
#        48594
#        68949
#        92899
#        111944
#        134674
#        147504
#        171149
#        193656
#        207494
#        228089
#        252031
#        266806
#
# Disc length: 3818 seconds
#
# Revision: 0
# Processed by: cddbd v1.5.2PL0 Copyright (c) Steve Scherf et al.
# Submitted via: ExactAudioCopy v1.3
#
DISCID=da0ee80e
DTITLE=Paul Lamb and The King Snakes - The Blue Album
DYEAR=1999
DGENRE=Harmonica Blues, Electric Blues
TTITLE0=Somedays
TTITLE1=Forever Blue
TTITLE2=Done Quit Drinkin'
TTITLE3=Superstitious
TTITLE4=Please Tell Me
TTITLE5=Millennium Blues
TTITLE6=One Step Ahead
TTITLE7=The Best I Can
TTITLE8=Burnin' Love
TTITLE9=Crazy  'bout It
TTITLE10=Can't Do Right
TTITLE11=Never Turn Your Back On A Friend
TTITLE12=Look Out Pinetop
TTITLE13=Slowdown
EXTD=
EXTT0=
EXTT1=
EXTT2=
EXTT3=
EXTT4=
EXTT5=
EXTT6=
EXTT7=
EXTT8=
EXTT9=
EXTT10=
EXTT11=
EXTT12=
EXTT13=
PLAYORDER=
